<svg version="1.1" id="Layer_1" xmlns="http://www.w3.org/2000/svg" xmlns:xlink="http://www.w3.org/1999/xlink" x="0px" y="0px"
	 width="100%" viewBox="0 0 542 542" enable-background="new 0 0 542 542" xml:space="preserve">
<path fill="#000000" opacity="1.000000" stroke="none" 
	d="
M326.000000,543.000000 
	C217.358261,543.000000 109.216515,543.000000 1.037388,543.000000 
	C1.037388,362.399902 1.037388,181.799789 1.037388,1.099834 
	C181.558426,1.099834 362.116913,1.099834 542.837708,1.099834 
	C542.837708,181.666550 542.837708,362.333252 542.837708,543.000000 
	C470.799713,543.000000 398.649872,543.000000 326.000000,543.000000 
M368.913300,112.400177 
	C368.621429,112.168571 368.329529,111.936966 367.794037,111.105659 
	C365.942902,109.727524 364.091797,108.349388 361.958588,106.451218 
	C361.349579,106.016197 360.740601,105.581184 359.409912,105.008514 
	C358.707123,104.617973 357.999420,104.235970 357.302277,103.835594 
	C350.513245,99.936661 343.726044,96.034653 336.559296,92.013046 
	C336.559296,92.013046 336.162689,91.984261 335.858002,91.337257 
	C334.575989,90.871880 333.293945,90.406494 332.003265,90.000519 
	C332.003265,90.000519 332.060303,89.981781 331.720673,89.335838 
	C331.062378,88.893761 330.462463,88.266586 329.736908,88.037590 
	C320.129272,85.005287 310.503967,82.028946 300.809509,78.217667 
	C285.230896,73.815712 269.334229,75.989189 253.549637,76.043060 
	C252.012299,76.048309 250.479248,77.316208 248.144119,78.058411 
	C240.845947,79.654869 233.211700,80.377533 226.319138,83.028580 
	C211.695984,88.652977 196.980499,94.380951 185.151093,105.322235 
	C178.704514,111.284805 171.976349,116.947067 165.616852,122.998741 
	C153.386963,134.636673 145.053589,149.082718 138.372131,164.257034 
	C132.235596,178.193771 129.794373,193.294922 129.049606,208.537796 
	C128.043884,229.121536 130.957764,249.280563 138.109894,268.515930 
	C143.021637,281.725830 149.225235,294.517365 155.655792,307.084290 
	C163.023880,321.483368 171.287476,335.424011 179.150116,349.570435 
	C182.439789,355.489166 185.566055,361.503601 189.015778,367.326935 
	C191.563309,371.627350 194.613586,375.626709 197.264053,379.870056 
	C202.030365,387.500885 206.688156,395.199982 211.341141,402.900879 
	C212.921158,405.515869 214.162292,408.350769 215.883179,410.862610 
	C220.865585,418.134949 226.145172,425.205414 231.062881,432.519989 
	C237.502350,442.098022 243.488770,451.986084 250.087402,461.449768 
	C254.714020,468.085175 259.678558,474.566406 265.159576,480.500000 
	C269.912292,485.645081 276.647400,485.045624 280.774414,479.554749 
	C285.320953,473.505768 289.419983,467.118774 293.671997,460.850555 
	C299.345459,452.486969 304.996124,444.107727 310.622864,435.712646 
	C314.769745,429.525513 319.035675,423.408234 322.927032,417.062714 
	C326.287384,411.583099 329.194366,405.825500 332.310791,400.383118 
	C332.310791,400.383118 332.503357,400.383087 333.114105,400.185822 
	C334.597443,398.455200 336.395782,396.904419 337.505554,394.960541 
	C340.962952,388.904724 344.159515,382.700043 347.520905,376.477203 
	C347.520905,376.477203 347.535980,376.379272 348.133881,376.161194 
	C348.782959,374.785492 349.432037,373.409790 350.015869,372.010193 
	C350.015869,372.010193 350.034576,372.077118 350.648041,371.770874 
	C350.990051,371.208069 351.332062,370.645264 351.736115,370.256104 
	C351.736115,370.256104 351.914673,370.210083 352.567596,369.883362 
	C356.514313,363.982880 360.691803,358.221558 364.353851,352.149384 
	C369.878143,342.989319 375.326202,333.760742 380.285950,324.288666 
	C386.079407,313.224335 391.779144,302.065125 396.663452,290.582916 
	C401.904480,278.262177 406.150757,265.518311 411.184875,252.256668 
	C413.476013,245.014023 415.708405,237.761597 415.043091,229.610275 
	C415.043091,229.610275 415.018646,229.192673 415.474823,228.932846 
	C415.595581,228.631180 415.716339,228.329529 416.008545,227.100983 
	C416.198364,209.231979 415.696014,191.556091 409.269318,174.415054 
	C404.541199,161.804489 399.493896,149.527634 391.032898,138.976852 
	C391.032898,138.976852 391.103668,138.958588 390.994751,138.250412 
	C386.078491,132.159378 381.162231,126.068344 376.038483,119.273956 
	C375.367859,118.795425 374.697205,118.316895 374.046173,117.938957 
	C374.046173,117.938957 374.144104,117.908646 373.948090,117.418526 
	C373.649933,117.255943 373.351776,117.093353 373.004791,116.986687 
	C373.004791,116.986687 373.076355,116.966949 372.968597,116.424934 
	C372.658539,116.256920 372.348511,116.088898 372.012360,115.987350 
	C372.012360,115.987350 372.078918,115.961517 371.965027,115.422729 
	C371.655579,115.255569 371.346100,115.088409 371.012451,114.987617 
	C371.012451,114.987617 371.078491,114.962486 370.960724,114.424271 
	C370.650726,114.257622 370.340698,114.090981 370.010925,113.988762 
	C370.010925,113.988762 370.076447,113.972954 369.946106,113.438652 
	C369.637573,113.267578 369.329010,113.096512 369.025513,112.995399 
	C369.025513,112.995399 369.067291,112.939026 368.913300,112.400177 
z"/>
<path fill="#4FB35D" opacity="1.000000" stroke="none" 
	d="
M336.162689,91.984261 
	C336.162689,91.984261 336.559296,92.013046 336.826508,92.407585 
	C337.598541,93.433914 337.990448,94.226089 338.625397,94.673058 
	C346.221100,100.020294 353.798340,105.397621 361.513641,110.568291 
	C363.434753,111.855789 365.832153,112.432564 368.284058,113.261375 
	C368.727417,113.104164 368.897339,113.021599 369.067291,112.939026 
	C369.067291,112.939026 369.025513,112.995399 369.055237,113.250908 
	C369.415466,113.661926 369.745941,113.817436 370.076447,113.972954 
	C370.076447,113.972954 370.010925,113.988762 370.027893,114.260246 
	C370.389435,114.675316 370.733948,114.818901 371.078491,114.962479 
	C371.078491,114.962486 371.012451,114.987617 371.026001,115.259354 
	C371.385986,115.674576 371.732452,115.818047 372.078918,115.961517 
	C372.078918,115.961517 372.012360,115.987350 372.023254,116.259422 
	C372.381561,116.676643 372.728973,116.821800 373.076355,116.966949 
	C373.076355,116.966949 373.004791,116.986687 372.935913,117.270447 
	C372.882294,117.770576 372.897552,117.986954 372.943756,118.553558 
	C374.405365,121.062492 375.562714,123.481087 377.320160,125.328941 
	C381.771057,130.008759 386.491302,134.432373 391.103668,138.958588 
	C391.103668,138.958588 391.032898,138.976852 391.034668,139.323486 
	C392.304108,142.525253 393.521301,145.404053 394.849274,148.230835 
	C398.252838,155.475708 402.461914,162.448395 404.946106,169.991882 
	C408.008881,179.292450 410.291077,188.966354 411.718353,198.654572 
	C412.989563,207.283173 412.652710,216.150528 412.987610,224.913971 
	C413.077850,227.275330 413.029968,229.641968 413.039246,232.397919 
	C412.966644,233.831680 412.900299,234.873703 412.577240,235.983978 
	C412.223755,236.705536 412.126953,237.358826 412.024261,238.338791 
	C412.000549,239.100357 411.982727,239.535278 411.699768,240.224945 
	C410.958496,241.874313 410.406097,243.248154 410.019135,244.667114 
	C408.229034,251.231232 407.080597,258.042877 404.599884,264.330963 
	C399.496094,277.267883 394.431274,290.315582 388.000122,302.611450 
	C377.894897,321.931946 366.604126,340.629913 355.992340,359.690063 
	C354.180328,362.944641 353.251495,366.690948 351.914673,370.210083 
	C351.914673,370.210083 351.736115,370.256104 351.372681,370.285858 
	C350.684387,370.902771 350.359497,371.489960 350.034576,372.077118 
	C350.034576,372.077118 350.015869,372.010193 349.699799,372.088013 
	C348.767822,373.570312 348.151886,374.974792 347.535980,376.379272 
	C347.535980,376.379272 347.520905,376.477203 347.124939,376.395508 
	C343.623016,380.661682 340.257233,384.852142 337.496399,389.409058 
	C335.428314,392.822479 334.139252,396.707855 332.503357,400.383087 
	C332.503357,400.383087 332.310791,400.383118 331.961243,400.372528 
	C329.744720,403.058228 327.842102,405.730591 326.016754,408.454773 
	C316.704834,422.352203 307.458954,436.294128 298.096161,450.157196 
	C292.728790,458.104431 287.366119,466.068512 281.616211,473.736176 
	C279.657928,476.347565 276.807434,478.679443 273.860291,480.070892 
	C269.116547,482.310547 267.749634,477.586334 265.658966,474.905243 
	C260.015259,467.667603 254.508224,460.323364 249.275360,452.875977 
	C251.331894,453.194031 253.641769,453.126404 254.658066,454.239685 
	C256.379456,456.125336 257.455200,458.682709 258.496307,461.090057 
	C260.742798,466.284454 267.807800,472.529114 271.023071,470.607635 
	C275.616333,467.862640 279.005768,463.093201 282.839264,459.120728 
	C283.007843,458.946075 282.479797,458.099182 282.233246,457.452728 
	C280.474731,458.854126 279.019653,460.013733 276.845306,461.746521 
	C276.031738,458.892395 275.481964,456.963562 274.883362,454.863495 
	C277.290649,454.125183 279.372314,453.886902 280.981842,452.887909 
	C282.835754,451.737335 285.121613,450.187164 285.718262,448.328461 
	C287.068512,444.121918 287.496185,439.619232 288.336243,435.034058 
	C286.499878,434.560333 283.577972,433.806519 280.509216,433.014832 
	C280.030426,436.833588 279.824310,440.958557 278.934448,444.930359 
	C277.884064,449.618774 274.646881,451.030243 270.256775,449.084137 
	C267.367371,447.803284 264.579071,446.293793 261.749786,444.878113 
	C254.505371,441.253113 254.273056,439.477570 259.369995,432.952423 
	C260.618713,431.353851 261.889496,428.208130 261.151794,426.904846 
	C258.555664,422.318298 258.703918,418.517303 262.651031,415.031860 
	C258.301056,411.636017 258.379578,411.630096 257.938660,405.790894 
	C257.836914,404.443359 257.380402,402.650909 256.428925,401.919800 
	C251.969574,398.493378 247.379013,395.213043 242.650864,392.166870 
	C234.908615,387.178772 223.895828,391.248199 220.659943,399.917542 
	C219.774567,399.053497 219.093842,398.333130 218.706390,397.479614 
	C217.151138,394.053589 215.486404,391.222260 211.960327,388.852417 
	C208.222961,386.340576 204.846725,381.917603 203.467010,377.635223 
	C201.903320,372.781830 198.346481,371.296021 194.646286,368.849915 
	C191.237503,363.328094 188.159500,357.957764 184.989105,352.642578 
	C179.677490,343.737579 174.082001,334.993561 169.024399,325.947815 
	C163.946518,316.865814 159.634186,307.355011 154.536026,298.285278 
	C144.109741,279.736633 137.590805,259.829498 133.558228,239.075775 
	C130.919678,225.496338 130.689499,211.761398 132.765106,198.050705 
	C134.798981,184.615677 139.004517,171.961472 144.359421,159.377029 
	C151.189011,143.326920 162.112885,130.406082 173.729111,118.332153 
	C185.003082,106.613945 198.672073,97.547203 214.093857,91.023026 
	C226.721466,85.680923 239.256226,81.122459 252.943176,79.823189 
	C256.039886,79.529221 259.033600,78.150612 262.478577,77.192780 
	C264.254150,77.107422 265.625824,77.100563 267.322449,77.333344 
	C271.432953,77.417725 275.218475,77.262482 279.371826,77.077446 
	C280.473389,77.101089 281.207123,77.154518 282.007050,77.468407 
	C282.733978,77.751999 283.394745,77.775131 284.380859,77.812485 
	C285.134094,77.898743 285.561981,77.970779 286.254883,78.272964 
	C288.686432,78.648483 290.852997,78.793846 293.411835,78.951309 
	C294.841492,79.092056 295.878906,79.220703 297.078857,79.668144 
	C304.302521,81.978241 311.369232,83.950081 318.422821,85.967819 
	C322.978577,87.271034 327.515137,88.641472 332.060303,89.981781 
	C332.060303,89.981781 332.003265,90.000519 332.096527,90.327438 
	C333.514099,91.097656 334.838379,91.540955 336.162689,91.984261 
M323.275269,223.648743 
	C323.525940,223.404984 323.776611,223.161224 324.106354,222.362061 
	C324.682007,221.921127 325.257660,221.480194 326.585388,220.936203 
	C326.690277,219.630463 326.795135,218.324738 327.003601,216.998947 
	C327.003601,216.998947 327.024048,217.102432 326.589539,216.348236 
	C315.127808,216.203552 303.662079,216.185867 292.207001,215.828308 
	C289.199280,215.734421 286.224457,214.587280 282.491699,213.768158 
	C282.381165,212.981979 281.954865,212.072525 282.206543,211.427734 
	C287.694183,197.369614 293.221375,183.326614 298.824615,169.314148 
	C300.871155,164.196106 303.218384,159.198410 305.271576,154.082855 
	C307.211487,149.249573 308.945496,144.333694 311.271881,138.112228 
	C309.075836,139.699081 307.922089,140.258881 307.135895,141.144852 
	C301.586700,147.398209 296.150208,153.751434 290.606598,160.009796 
	C282.407379,169.266113 274.155457,178.475769 265.914490,187.695023 
	C257.538177,197.065720 249.184525,206.457092 240.752853,215.777786 
	C233.279739,224.038864 225.642349,232.153152 218.288940,240.518112 
	C217.486786,241.430618 218.083130,243.572510 218.699463,245.622009 
	C229.493683,245.751816 240.298904,245.644577 251.076004,246.143768 
	C254.704605,246.311829 258.261871,248.020355 261.689056,249.719391 
	C251.482666,274.432770 241.276276,299.146118 231.069901,323.859497 
	C231.203812,324.016083 231.337708,324.172699 231.471619,324.329285 
	C258.071045,295.182861 284.670502,266.036438 311.729095,236.604187 
	C312.165192,236.052460 312.601288,235.500732 313.132446,234.345566 
	C314.040436,233.575790 314.948456,232.806000 316.506744,231.824097 
	C317.348511,230.845200 318.190247,229.866302 318.988617,228.365143 
	C319.064362,228.207703 319.140076,228.050278 319.411102,227.471344 
	C319.411102,227.471344 319.589508,227.031570 319.589508,227.031570 
	C319.589508,227.031570 320.062531,226.979294 319.945251,226.956390 
	C319.945251,226.956390 319.965240,226.838562 320.555084,226.782516 
	C321.055359,226.474350 321.555603,226.166199 322.042694,226.047867 
	C322.042694,226.047867 321.852448,226.043945 322.349976,225.649750 
	C322.568939,225.071808 322.787872,224.493851 323.039307,224.015564 
	C323.039307,224.015564 322.941711,224.053818 323.275269,223.648743 
z"/>
<path fill="#6AB376" opacity="1.000000" stroke="none" 
	d="
M248.946960,453.021393 
	C254.508224,460.323364 260.015259,467.667603 265.658966,474.905243 
	C267.749634,477.586334 269.116547,482.310547 273.860291,480.070892 
	C276.807434,478.679443 279.657928,476.347565 281.616211,473.736176 
	C287.366119,466.068512 292.728790,458.104431 298.096161,450.157196 
	C307.458954,436.294128 316.704834,422.352203 326.016754,408.454773 
	C327.842102,405.730591 329.744720,403.058228 331.956726,400.276367 
	C329.194366,405.825500 326.287384,411.583099 322.927032,417.062714 
	C319.035675,423.408234 314.769745,429.525513 310.622864,435.712646 
	C304.996124,444.107727 299.345459,452.486969 293.671997,460.850555 
	C289.419983,467.118774 285.320953,473.505768 280.774414,479.554749 
	C276.647400,485.045624 269.912292,485.645081 265.159576,480.500000 
	C259.678558,474.566406 254.714020,468.085175 250.087402,461.449768 
	C243.488770,451.986084 237.502350,442.098022 231.062881,432.519989 
	C226.145172,425.205414 220.865585,418.134949 215.883179,410.862610 
	C214.162292,408.350769 212.921158,405.515869 211.341141,402.900879 
	C206.688156,395.199982 202.030365,387.500885 197.264053,379.870056 
	C194.613586,375.626709 191.563309,371.627350 189.015778,367.326935 
	C185.566055,361.503601 182.439789,355.489166 179.150116,349.570435 
	C171.287476,335.424011 163.023880,321.483368 155.655792,307.084290 
	C149.225235,294.517365 143.021637,281.725830 138.109894,268.515930 
	C130.957764,249.280563 128.043884,229.121536 129.049606,208.537796 
	C129.794373,193.294922 132.235596,178.193771 138.372131,164.257034 
	C145.053589,149.082718 153.386963,134.636673 165.616852,122.998741 
	C171.976349,116.947067 178.704514,111.284805 185.151093,105.322235 
	C196.980499,94.380951 211.695984,88.652977 226.319138,83.028580 
	C233.211700,80.377533 240.845947,79.654869 249.001083,78.086960 
	C253.930283,77.834091 258.002502,77.552681 262.074738,77.271278 
	C259.033600,78.150612 256.039886,79.529221 252.943176,79.823189 
	C239.256226,81.122459 226.721466,85.680923 214.093857,91.023026 
	C198.672073,97.547203 185.003082,106.613945 173.729111,118.332153 
	C162.112885,130.406082 151.189011,143.326920 144.359421,159.377029 
	C139.004517,171.961472 134.798981,184.615677 132.765106,198.050705 
	C130.689499,211.761398 130.919678,225.496338 133.558228,239.075775 
	C137.590805,259.829498 144.109741,279.736633 154.536026,298.285278 
	C159.634186,307.355011 163.946518,316.865814 169.024399,325.947815 
	C174.082001,334.993561 179.677490,343.737579 184.989105,352.642578 
	C188.159500,357.957764 191.237503,363.328094 194.670593,369.212158 
	C195.786591,371.143066 196.510696,372.588135 197.405792,373.918213 
	C200.420578,378.398102 203.676224,382.726105 206.506775,387.317444 
	C210.865829,394.388184 214.788986,401.728943 219.188583,408.773071 
	C225.245331,418.470428 231.450256,428.081390 237.844208,437.559021 
	C240.570343,441.599884 243.934723,445.210236 247.234711,449.252258 
	C247.955887,450.666016 248.451431,451.843689 248.946960,453.021393 
z"/>
<path fill="#6AB376" opacity="1.000000" stroke="none" 
	d="
M352.241150,370.046722 
	C353.251495,366.690948 354.180328,362.944641 355.992340,359.690063 
	C366.604126,340.629913 377.894897,321.931946 388.000122,302.611450 
	C394.431274,290.315582 399.496094,277.267883 404.599884,264.330963 
	C407.080597,258.042877 408.229034,251.231232 410.019135,244.667114 
	C410.406097,243.248154 410.958496,241.874313 411.727905,240.639954 
	C411.624481,244.853180 411.227814,248.906113 410.831116,252.959061 
	C406.150757,265.518311 401.904480,278.262177 396.663452,290.582916 
	C391.779144,302.065125 386.079407,313.224335 380.285950,324.288666 
	C375.326202,333.760742 369.878143,342.989319 364.353851,352.149384 
	C360.691803,358.221558 356.514313,363.982880 352.241150,370.046722 
z"/>
<path fill="#6AB376" opacity="1.000000" stroke="none" 
	d="
M413.045502,232.006195 
	C413.029968,229.641968 413.077850,227.275330 412.987610,224.913971 
	C412.652710,216.150528 412.989563,207.283173 411.718353,198.654572 
	C410.291077,188.966354 408.008881,179.292450 404.946106,169.991882 
	C402.461914,162.448395 398.252838,155.475708 394.849274,148.230835 
	C393.521301,145.404053 392.304108,142.525253 391.040375,139.287384 
	C399.493896,149.527634 404.541199,161.804489 409.269318,174.415054 
	C415.696014,191.556091 416.198364,209.231979 415.740234,227.721558 
	C415.313812,228.621887 415.162720,228.905411 415.018646,229.192673 
	C415.018646,229.192673 415.043091,229.610275 414.731384,229.951019 
	C413.961639,230.863251 413.503571,231.434723 413.045502,232.006195 
z"/>
<path fill="#6AB376" opacity="1.000000" stroke="none" 
	d="
M368.010651,113.336014 
	C365.832153,112.432564 363.434753,111.855789 361.513641,110.568291 
	C353.798340,105.397621 346.221100,100.020294 338.625397,94.673058 
	C337.990448,94.226089 337.598541,93.433914 337.015991,92.467827 
	C343.726044,96.034653 350.513245,99.936661 357.302277,103.835594 
	C357.999420,104.235970 358.707123,104.617973 359.816132,105.391739 
	C360.895111,106.173737 361.567902,106.572495 362.240662,106.971252 
	C364.091797,108.349388 365.942902,109.727524 367.888306,111.813065 
	C367.991974,112.792313 368.001312,113.064163 368.010651,113.336014 
z"/>
<path fill="#BDE5C3" opacity="1.000000" stroke="none" 
	d="
M262.478577,77.192780 
	C258.002502,77.552681 253.930283,77.834091 249.401123,78.056755 
	C250.479248,77.316208 252.012299,76.048309 253.549637,76.043060 
	C269.334229,75.989189 285.230896,73.815712 300.452789,78.683975 
	C299.036133,79.216644 297.976227,79.283005 296.916290,79.349350 
	C295.878906,79.220703 294.841492,79.092056 293.093018,78.729675 
	C290.251282,78.344902 288.120575,78.193855 285.989899,78.042809 
	C285.561981,77.970779 285.134094,77.898743 284.168121,77.610703 
	C283.067017,77.332443 282.503937,77.270187 281.940887,77.207939 
	C281.207123,77.154518 280.473389,77.101089 278.917908,76.987823 
	C274.396667,76.983231 270.697083,77.038467 266.997528,77.093704 
	C265.625824,77.100563 264.254150,77.107422 262.478577,77.192780 
z"/>
<path fill="#6AB376" opacity="1.000000" stroke="none" 
	d="
M332.808716,400.284454 
	C334.139252,396.707855 335.428314,392.822479 337.496399,389.409058 
	C340.257233,384.852142 343.623016,380.661682 347.093079,376.433472 
	C344.159515,382.700043 340.962952,388.904724 337.505554,394.960541 
	C336.395782,396.904419 334.597443,398.455200 332.808716,400.284454 
z"/>
<path fill="#6AB376" opacity="1.000000" stroke="none" 
	d="
M297.078857,79.668152 
	C297.976227,79.283005 299.036133,79.216644 300.489563,79.094452 
	C310.503967,82.028946 320.129272,85.005287 329.736908,88.037590 
	C330.462463,88.266586 331.062378,88.893761 331.890503,89.658813 
	C327.515137,88.641472 322.978577,87.271034 318.422821,85.967819 
	C311.369232,83.950081 304.302521,81.978241 297.078857,79.668152 
z"/>
<path fill="#6AB376" opacity="1.000000" stroke="none" 
	d="
M391.049194,138.604507 
	C386.491302,134.432373 381.771057,130.008759 377.320160,125.328941 
	C375.562714,123.481087 374.405365,121.062492 373.253174,118.484451 
	C373.735809,118.012955 373.939972,117.960800 374.144104,117.908646 
	C374.144104,117.908646 374.046173,117.938957 374.123291,118.205429 
	C374.882294,118.973701 375.564117,119.475502 376.245972,119.977310 
	C381.162231,126.068344 386.078491,132.159378 391.049194,138.604507 
z"/>
<path fill="#98CF9F" opacity="1.000000" stroke="none" 
	d="
M413.039246,232.397919 
	C413.503571,231.434723 413.961639,230.863251 414.657257,230.146591 
	C415.708405,237.761597 413.476013,245.014023 411.007996,252.607864 
	C411.227814,248.906113 411.624481,244.853180 411.993042,240.385208 
	C411.982727,239.535278 412.000549,239.100357 412.238739,238.135193 
	C412.584045,237.041855 412.709015,236.478790 412.833954,235.915726 
	C412.900299,234.873703 412.966644,233.831680 413.039246,232.397919 
z"/>
<path fill="#6AB376" opacity="1.000000" stroke="none" 
	d="
M347.834930,376.270233 
	C348.151886,374.974792 348.767822,373.570312 349.732422,372.099976 
	C349.432037,373.409790 348.782959,374.785492 347.834930,376.270233 
z"/>
<path fill="#6AB376" opacity="1.000000" stroke="none" 
	d="
M336.010345,91.660759 
	C334.838379,91.540955 333.514099,91.097656 332.100861,90.297729 
	C333.293945,90.406494 334.575989,90.871880 336.010345,91.660759 
z"/>
<path fill="#98CF9F" opacity="1.000000" stroke="none" 
	d="
M362.099609,106.711235 
	C361.567902,106.572495 360.895111,106.173737 360.176971,105.460571 
	C360.740601,105.581184 361.349579,106.016197 362.099609,106.711235 
z"/>
<path fill="#98CF9F" opacity="1.000000" stroke="none" 
	d="
M376.142212,119.625633 
	C375.564117,119.475502 374.882294,118.973701 374.113525,118.155136 
	C374.697205,118.316895 375.367859,118.795425 376.142212,119.625633 
z"/>
<path fill="#6AB376" opacity="1.000000" stroke="none" 
	d="
M350.341309,371.924011 
	C350.359497,371.489960 350.684387,370.902771 351.341675,370.199036 
	C351.332062,370.645264 350.990051,371.208069 350.341309,371.924011 
z"/>
<path fill="#98CF9F" opacity="1.000000" stroke="none" 
	d="
M415.246735,229.062759 
	C415.162720,228.905411 415.313812,228.621887 415.654541,228.184998 
	C415.716339,228.329529 415.595581,228.631180 415.246735,229.062759 
z"/>
<path fill="#98CF9F" opacity="1.000000" stroke="none" 
	d="
M374.046082,117.663589 
	C373.939972,117.960800 373.735809,118.012955 373.222229,118.134224 
	C372.897552,117.986954 372.882294,117.770576 372.960327,117.242485 
	C373.351776,117.093353 373.649933,117.255943 374.046082,117.663589 
z"/>
<path fill="#98CF9F" opacity="1.000000" stroke="none" 
	d="
M373.022461,116.695946 
	C372.728973,116.821800 372.381561,116.676643 372.036316,116.226189 
	C372.348511,116.088898 372.658539,116.256920 373.022461,116.695946 
z"/>
<path fill="#98CF9F" opacity="1.000000" stroke="none" 
	d="
M372.021973,115.692123 
	C371.732452,115.818047 371.385986,115.674576 371.038086,115.226173 
	C371.346100,115.088409 371.655579,115.255569 372.021973,115.692123 
z"/>
<path fill="#98CF9F" opacity="1.000000" stroke="none" 
	d="
M371.019592,114.693375 
	C370.733948,114.818901 370.389435,114.675316 370.037781,114.228027 
	C370.340698,114.090981 370.650726,114.257622 371.019592,114.693375 
z"/>
<path fill="#98CF9F" opacity="1.000000" stroke="none" 
	d="
M370.011292,113.705803 
	C369.745941,113.817436 369.415466,113.661926 369.052734,113.215927 
	C369.329010,113.096512 369.637573,113.267578 370.011292,113.705803 
z"/>
<path fill="#98CF9F" opacity="1.000000" stroke="none" 
	d="
M368.284058,113.261375 
	C368.001312,113.064163 367.991974,112.792313 368.010132,112.112915 
	C368.329529,111.936966 368.621429,112.168571 368.990295,112.669601 
	C368.897339,113.021599 368.727417,113.104164 368.284058,113.261375 
z"/>
<path fill="#000000" opacity="1.000000" stroke="none" 
	d="
M325.833313,221.039246 
	C325.257660,221.480194 324.682007,221.921127 323.821899,222.761337 
	C323.338867,223.458344 323.140289,223.756088 322.941711,224.053833 
	C322.941711,224.053818 323.039307,224.015564 322.695038,224.153687 
	C322.184662,224.875870 322.018555,225.459900 321.852448,226.043945 
	C321.852448,226.043945 322.042694,226.047867 321.771790,225.704254 
	C320.989014,225.853287 320.477142,226.345932 319.965240,226.838562 
	C319.965240,226.838562 319.945251,226.956390 319.791138,227.053711 
	C319.306946,227.290695 319.166534,227.537979 319.215759,227.892868 
	C319.140076,228.050278 319.064362,228.207703 318.687012,228.749374 
	C317.542419,230.101151 316.699432,231.068680 315.856445,232.036209 
	C314.948456,232.806000 314.040436,233.575790 312.843536,234.777939 
	C312.126404,235.770203 311.698151,236.330093 311.269897,236.889999 
	C284.670502,266.036438 258.071045,295.182861 231.471619,324.329285 
	C231.337708,324.172699 231.203812,324.016083 231.069901,323.859497 
	C241.276276,299.146118 251.482666,274.432770 261.967682,249.010712 
	C264.275726,245.315323 262.465027,245.008118 260.009888,245.018311 
	C246.016922,245.076416 232.023834,245.105331 218.030792,245.144165 
	C218.083130,243.572510 217.486786,241.430618 218.288940,240.518112 
	C225.642349,232.153152 233.279739,224.038864 240.752853,215.777786 
	C249.184525,206.457092 257.538177,197.065720 265.914490,187.695023 
	C274.155457,178.475769 282.407379,169.266113 290.606598,160.009796 
	C296.150208,153.751434 301.586700,147.398209 307.135895,141.144852 
	C307.922089,140.258881 309.075836,139.699081 311.271881,138.112228 
	C308.945496,144.333694 307.211487,149.249573 305.271576,154.082855 
	C303.218384,159.198410 300.871155,164.196106 298.824615,169.314148 
	C293.221375,183.326614 287.694183,197.369614 282.206543,211.427734 
	C281.954865,212.072525 282.381165,212.981979 282.759644,214.244492 
	C280.900299,218.542099 284.501282,216.859421 285.386414,216.870148 
	C299.264526,217.038132 313.144501,217.052612 327.024048,217.102417 
	C327.024048,217.102432 327.003601,216.998947 326.971283,217.374084 
	C326.570404,218.845901 326.201843,219.942581 325.833313,221.039246 
z"/>
<path fill="#4FB460" opacity="1.000000" stroke="none" 
	d="
M249.275360,452.875977 
	C248.451431,451.843689 247.955887,450.666016 247.233688,448.855835 
	C247.004700,445.482208 247.002350,442.741119 247.329697,439.851074 
	C249.002731,438.565826 250.346054,437.429474 251.689392,436.293152 
	C250.086807,435.862152 248.504684,435.304779 246.875031,435.040924 
	C245.614197,434.836761 244.293884,435.000061 242.938019,434.641083 
	C242.107208,433.557617 241.408966,432.316345 240.557098,432.199982 
	C237.278763,431.752289 236.841827,429.644775 237.231659,426.772644 
	C235.975739,424.363495 234.488174,422.181732 232.833084,419.694580 
	C230.110580,415.592773 227.555588,411.796387 224.990814,407.637512 
	C223.654221,405.850037 222.327408,404.425018 221.000427,402.625000 
	C220.999939,401.500000 220.999664,400.750000 220.999390,400.000000 
	C223.895828,391.248199 234.908615,387.178772 242.650864,392.166870 
	C247.379013,395.213043 251.969574,398.493378 256.428925,401.919800 
	C257.380402,402.650909 257.836914,404.443359 257.938660,405.790894 
	C258.379578,411.630096 258.301056,411.636017 262.651031,415.031860 
	C258.703918,418.517303 258.555664,422.318298 261.151794,426.904846 
	C261.889496,428.208130 260.618713,431.353851 259.369995,432.952423 
	C254.273056,439.477570 254.505371,441.253113 261.749786,444.878113 
	C264.579071,446.293793 267.367371,447.803284 270.256775,449.084137 
	C274.646881,451.030243 277.884064,449.618774 278.934448,444.930359 
	C279.824310,440.958557 280.030426,436.833588 280.509216,433.014832 
	C283.577972,433.806519 286.499878,434.560333 288.336243,435.034058 
	C287.496185,439.619232 287.068512,444.121918 285.718262,448.328461 
	C285.121613,450.187164 282.835754,451.737335 280.981842,452.887909 
	C279.372314,453.886902 277.290649,454.125183 274.883362,454.863495 
	C275.481964,456.963562 276.031738,458.892395 276.845306,461.746521 
	C279.019653,460.013733 280.474731,458.854126 282.233246,457.452728 
	C282.479797,458.099182 283.007843,458.946075 282.839264,459.120728 
	C279.005768,463.093201 275.616333,467.862640 271.023071,470.607635 
	C267.807800,472.529114 260.742798,466.284454 258.496307,461.090057 
	C257.455200,458.682709 256.379456,456.125336 254.658066,454.239685 
	C253.641769,453.126404 251.331894,453.194031 249.275360,452.875977 
M226.236023,400.245300 
	C226.422638,401.605133 226.168289,403.276947 226.871674,404.271179 
	C230.041687,408.751740 233.470200,413.050293 236.835388,417.391327 
	C237.740997,418.559570 238.751450,419.646545 239.713776,420.770813 
	C240.768738,419.597595 241.929535,418.502136 242.859039,417.236816 
	C245.776321,413.265472 245.372864,407.052216 251.164490,404.965027 
	C251.531052,404.832916 251.770660,403.802368 251.741425,403.205872 
	C251.531952,398.934265 243.588150,394.361145 240.245377,397.125153 
	C236.060989,400.585144 231.846252,401.091675 226.236023,400.245300 
z"/>
<path fill="#4DB15E" opacity="1.000000" stroke="none" 
	d="
M220.659943,399.917542 
	C220.999664,400.750000 220.999939,401.500000 221.000397,403.016235 
	C221.309341,406.160065 220.201324,409.881378 225.000610,408.000000 
	C227.555588,411.796387 230.110580,415.592773 232.700745,419.998169 
	C231.935379,424.220154 233.759872,426.082184 237.000000,427.000000 
	C236.841827,429.644775 237.278763,431.752289 240.557098,432.199982 
	C241.408966,432.316345 242.107208,433.557617 242.722137,434.867706 
	C242.347702,438.623688 243.965439,440.002319 247.000000,440.000000 
	C247.002350,442.741119 247.004700,445.482208 247.008057,448.619751 
	C243.934723,445.210236 240.570343,441.599884 237.844208,437.559021 
	C231.450256,428.081390 225.245331,418.470428 219.188583,408.773071 
	C214.788986,401.728943 210.865829,394.388184 206.506775,387.317444 
	C203.676224,382.726105 200.420578,378.398102 197.405792,373.918213 
	C196.510696,372.588135 195.786591,371.143066 194.959824,369.388458 
	C198.346481,371.296021 201.903320,372.781830 203.467010,377.635223 
	C204.846725,381.917603 208.222961,386.340576 211.960327,388.852417 
	C215.486404,391.222260 217.151138,394.053589 218.706390,397.479614 
	C219.093842,398.333130 219.774567,399.053497 220.659943,399.917542 
z"/>
<path fill="#70A777" opacity="1.000000" stroke="none" 
	d="
M218.365128,245.383087 
	C232.023834,245.105331 246.016922,245.076416 260.009888,245.018311 
	C262.465027,245.008118 264.275726,245.315323 262.049011,248.663422 
	C258.261871,248.020355 254.704605,246.311829 251.076004,246.143768 
	C240.298904,245.644577 229.493683,245.751816 218.365128,245.383087 
z"/>
<path fill="#CDEDCF" opacity="1.000000" stroke="none" 
	d="
M326.806793,216.725327 
	C313.144501,217.052612 299.264526,217.038132 285.386414,216.870148 
	C284.501282,216.859421 280.900299,218.542099 283.131042,214.322327 
	C286.224457,214.587280 289.199280,215.734421 292.207001,215.828308 
	C303.662079,216.185867 315.127808,216.203552 326.806793,216.725327 
z"/>
<path fill="#6AB376" opacity="1.000000" stroke="none" 
	d="
M267.322449,77.333344 
	C270.697083,77.038467 274.396667,76.983231 278.550110,77.017609 
	C275.218475,77.262482 271.432953,77.417725 267.322449,77.333344 
z"/>
<path fill="#6AB376" opacity="1.000000" stroke="none" 
	d="
M286.254883,78.272964 
	C288.120575,78.193855 290.251282,78.344902 292.700745,78.717575 
	C290.852997,78.793846 288.686432,78.648483 286.254883,78.272964 
z"/>
<path fill="#CDEDCF" opacity="1.000000" stroke="none" 
	d="
M316.181580,231.930145 
	C316.699432,231.068680 317.542419,230.101151 318.708679,229.010513 
	C318.190247,229.866302 317.348511,230.845200 316.181580,231.930145 
z"/>
<path fill="#CDEDCF" opacity="1.000000" stroke="none" 
	d="
M326.209351,220.987732 
	C326.201843,219.942581 326.570404,218.845901 326.919495,217.384109 
	C326.795135,218.324738 326.690277,219.630463 326.209351,220.987732 
z"/>
<path fill="#6AB376" opacity="1.000000" stroke="none" 
	d="
M282.007050,77.468407 
	C282.503937,77.270187 283.067017,77.332443 283.842773,77.596481 
	C283.394745,77.775131 282.733978,77.751999 282.007050,77.468407 
z"/>
<path fill="#6AB376" opacity="1.000000" stroke="none" 
	d="
M412.577240,235.983978 
	C412.709015,236.478790 412.584045,237.041855 412.244629,237.808533 
	C412.126953,237.358826 412.223755,236.705536 412.577240,235.983978 
z"/>
<path fill="#CDEDCF" opacity="1.000000" stroke="none" 
	d="
M311.499512,236.747086 
	C311.698151,236.330093 312.126404,235.770203 312.795990,235.079651 
	C312.601288,235.500732 312.165192,236.052460 311.499512,236.747086 
z"/>
<path fill="#CDEDCF" opacity="1.000000" stroke="none" 
	d="
M320.260162,226.810547 
	C320.477142,226.345932 320.989014,225.853287 321.778381,225.609344 
	C321.555603,226.166199 321.055359,226.474350 320.260162,226.810547 
z"/>
<path fill="#CDEDCF" opacity="1.000000" stroke="none" 
	d="
M322.101196,225.846848 
	C322.018555,225.459900 322.184662,224.875870 322.678772,224.103851 
	C322.787872,224.493851 322.568939,225.071808 322.101196,225.846848 
z"/>
<path fill="#CDEDCF" opacity="1.000000" stroke="none" 
	d="
M323.108490,223.851288 
	C323.140289,223.756088 323.338867,223.458344 323.782349,223.039032 
	C323.776611,223.161224 323.525940,223.404984 323.108490,223.851288 
z"/>
<path fill="#CDEDCF" opacity="1.000000" stroke="none" 
	d="
M319.313416,227.682098 
	C319.166534,227.537979 319.306946,227.290695 319.849792,227.065155 
	C320.062531,226.979294 319.589508,227.031570 319.589508,227.031570 
	C319.589508,227.031570 319.411102,227.471344 319.313416,227.682098 
z"/>
<path fill="#51B461" opacity="1.000000" stroke="none" 
	d="
M226.609634,400.158203 
	C231.846252,401.091675 236.060989,400.585144 240.245377,397.125153 
	C243.588150,394.361145 251.531952,398.934265 251.741425,403.205872 
	C251.770660,403.802368 251.531052,404.832916 251.164490,404.965027 
	C245.372864,407.052216 245.776321,413.265472 242.859039,417.236816 
	C241.929535,418.502136 240.768738,419.597595 239.713776,420.770813 
	C238.751450,419.646545 237.740997,418.559570 236.835388,417.391327 
	C233.470200,413.050293 230.041687,408.751740 226.871674,404.271179 
	C226.168289,403.276947 226.422638,401.605133 226.609634,400.158203 
z"/>
<path fill="#51B461" opacity="1.000000" stroke="none" 
	d="
M247.329697,439.851074 
	C243.965439,440.002319 242.347702,438.623688 242.784119,435.226624 
	C244.293884,435.000061 245.614197,434.836761 246.875031,435.040924 
	C248.504684,435.304779 250.086807,435.862152 251.689392,436.293152 
	C250.346054,437.429474 249.002731,438.565826 247.329697,439.851074 
z"/>
<path fill="#4FB35D" opacity="1.000000" stroke="none" 
	d="
M237.231659,426.772644 
	C233.759872,426.082184 231.935379,424.220154 232.868256,420.303589 
	C234.488174,422.181732 235.975739,424.363495 237.231659,426.772644 
z"/>
<path fill="#4FB35D" opacity="1.000000" stroke="none" 
	d="
M224.990814,407.637512 
	C220.201324,409.881378 221.309341,406.160065 221.000580,403.391235 
	C222.327408,404.425018 223.654221,405.850037 224.990814,407.637512 
z"/>
</svg>